# xmcd CD database file
# Copyright (C) 1993-1996 Ti Kan
#
# Track frame offsets:
# 150
# 14635
# 28592
# 42047
# 55715
# 68765
# 80525
# 94220
# 106552
# 120697
# 135012
# 148465
# 160792
# 173807
# 185752
# 194970
# 202805
# 213555
# 224802
# 236770
# 246790
# 255630
# 268225
# 277200
# 288760
# 299360
#
# Disc length: 4140 seconds
#
# Revision: 0
# Processed by: cddbd v1.4PL0 Copyright (c) Steve Scherf et al.
# Submitted via: inCDius 1.1b5
#
DISCID=98102a1a
DTITLE=Ernest Tubb - Walking The Floor Over You - Disc 4
DYEAR=1996
DGENRE=Country
TTITLE0=I'll Never Cry Over You
TTITLE1=Our Baby's Book
TTITLE2=When The World Has Turned You Down
TTITLE3=I Wonder Why You Said Goodbye
TTITLE4=I'm Glad I Met You After All
TTITLE5=That's All She Wrote
TTITLE6=I Ain't Gonna Love You Anymore
TTITLE7=I Don't Want You After All
TTITLE8=Just Crying To Myself
TTITLE9=Try Me One More Time
TTITLE10=I've Lived A Lie
TTITLE11=Wondering If You're Wondering Too
TTITLE12=When Love Turns To Hate
TTITLE13=There's A New Moon Over My Shoulder
TTITLE14=Daisy May
TTITLE15=I Hung My Head And Cried
TTITLE16=There's Something On My Mind
TTITLE17=Too Late To Worry, Too Blue To Cry
TTITLE18=Love Gone Cold
TTITLE19=You Brought Sorrow To My Heart
TTITLE20=Home In San Antone
TTITLE21=Darling What More Can I Do
TTITLE22=Blue Bonnet Lane
TTITLE23=I Believe I'm Entitled To You
TTITLE24=You're Going To Be Sorry
TTITLE25=My Confession
EXTD=
EXTT0=
EXTT1=
EXTT2=
EXTT3=
EXTT4=
EXTT5=
EXTT6=
EXTT7=
EXTT8=
EXTT9=
EXTT10=
EXTT11=
EXTT12=
EXTT13=
EXTT14=
EXTT15=
EXTT16=
EXTT17=
EXTT18=
EXTT19=
EXTT20=
EXTT21=
EXTT22=
EXTT23=
EXTT24=
EXTT25=
PLAYORDER=
